<svg xmlns="http://www.w3.org/2000/svg" viewBox="0 0 128 128" width="128" height="128">
  <defs>
    <linearGradient id="bgGrad" x1="0%" y1="0%" x2="100%" y2="100%">
      <stop offset="0%" stop-color="#03a87c" />
      <stop offset="100%" stop-color="#007955" />
    </linearGradient>
    <filter id="shadow" x="-10%" y="-10%" width="120%" height="120%">
      <feDropShadow dx="0" dy="4" stdDeviation="4" flood-color="#000000" flood-opacity="0.25" />
    </filter>
  </defs>
  <!-- Rounded Box Background -->
  <rect x="8" y="8" width="112" height="112" rx="28" fill="url(#bgGrad)" filter="url(#shadow)"/>
  
  <!-- Stylized M with Filter funnel element -->
  <path d="M34 40 C34 37 37 35 40 35 L48 35 C51 35 53 37 55 40 L64 56 L73 40 C75 37 77 35 80 35 L88 35 C91 35 94 37 94 40 L94 88 C94 91 91 93 88 93 L82 93 C79 93 77 91 77 88 L77 60 L68 76 C66 79 62 79 60 76 L51 60 L51 88 C51 91 49 93 46 93 L40 93 C37 93 34 91 34 88 Z" fill="#ffffff"/>
  
  <!-- Filter Shield/Check Badge -->
  <circle cx="92" cy="92" r="22" fill="#121212" stroke="#ffffff" stroke-width="3"/>
  <path d="M82 92 L89 98 L102 85" fill="none" stroke="#03a87c" stroke-width="4" stroke-linecap="round" stroke-linejoin="round"/>
</svg>
